<svg height="32" viewBox="0 0 32 32" width="32" xmlns="http://www.w3.org/2000/svg"><path d="m16 18a5 5 0 1 1 5-5 5.0057 5.0057 0 0 1 -5 5zm0-8a3 3 0 1 0 3 3 3.0033 3.0033 0 0 0 -3-3z"/><path d="m16 30-8.4355-9.9487c-.0479-.0571-.3482-.4515-.3482-.4515a10.8888 10.8888 0 0 1 -2.2163-6.5998 11 11 0 0 1 22 0 10.8844 10.8844 0 0 1 -2.2148 6.5973l-.0015.0025s-.3.3944-.3447.4474zm-7.1875-11.605c.001.0007.2334.3082.2866.3744l6.9009 8.1385 6.91-8.15c.0439-.0552.2783-.3649.2788-.3657a8.901 8.901 0 0 0 1.8112-5.3922 9 9 0 1 0 -18 0 8.9054 8.9054 0 0 0 1.8125 5.395z"/><path d="m0 0h32v32h-32z" fill="none" transform="matrix(0 -1 1 0 0 32)"/></svg>