<svg width="28" height="24" viewBox="0 0 28 24" fill="none" xmlns="http://www.w3.org/2000/svg">
<path id="Vector" d="M23.1579 20.5V20.125H22.6185L22.8064 20.6306L23.1579 20.5ZM23.8693 22.4139L24.2208 22.2832L23.8693 22.4139ZM23.0949 22.9837L22.8656 23.2804H22.8656L23.0949 22.9837ZM19.8806 20.5L20.1099 20.2033L20.0086 20.125H19.8806V20.5ZM6.69323 18L7.04473 18.1306L7.23267 17.625H6.69323V18ZM5.60918 20.9166L5.25767 20.7859L5.60918 20.9166ZM6.38357 21.4864L6.61286 21.7831H6.61286L6.38357 21.4864ZM10.8954 18V17.625H10.7674L10.6661 17.7033L10.8954 18ZM13.4481 3.25L13.7133 2.98483C13.6411 2.91269 13.5427 2.87306 13.4407 2.87507C13.3387 2.87709 13.2419 2.92058 13.1727 2.99551L13.4481 3.25ZM9.66443 7.34506L9.92769 7.61212L9.93392 7.60598L9.93986 7.59955L9.66443 7.34506ZM9.31661 8.27802H9.69161V8.25963L9.68981 8.24132L9.31661 8.27802ZM16 14.25L16.3609 14.352L16.368 14.3267L16.3716 14.3007L16 14.25ZM16.75 8.75L17.1216 8.80067L17.125 8.77545V8.75H16.75ZM13.4481 7.59032L13.146 7.36814C13.0622 7.48205 13.0497 7.63341 13.1135 7.75959C13.1773 7.88577 13.3067 7.96532 13.4481 7.96532V7.59032ZM14.25 6.5L14.5521 6.72218L14.5693 6.69872L14.5828 6.67288L14.25 6.5ZM27.973 9C27.973 8.51675 27.5813 8.125 27.098 8.125V8.875C27.1671 8.875 27.223 8.93096 27.223 9H27.973ZM27.973 20V9H27.223V20H27.973ZM27.098 20.875C27.5813 20.875 27.973 20.4832 27.973 20H27.223C27.223 20.069 27.1671 20.125 27.098 20.125V20.875ZM23.1579 20.875H27.098V20.125H23.1579V20.875ZM24.2208 22.2832L23.5094 20.3694L22.8064 20.6306L23.5178 22.5445L24.2208 22.2832ZM22.8656 23.2804C23.5618 23.8184 24.5273 23.1079 24.2208 22.2832L23.5178 22.5445C23.5316 22.5819 23.5286 22.6075 23.5225 22.6259C23.5153 22.6475 23.4994 22.6706 23.4747 22.6888C23.45 22.7069 23.4232 22.7152 23.4005 22.7157C23.3811 22.7161 23.3557 22.7114 23.3242 22.687L22.8656 23.2804ZM19.6514 20.7967L22.8656 23.2804L23.3242 22.687L20.1099 20.2033L19.6514 20.7967ZM12.5 20.875H19.8806V20.125H12.5V20.875ZM11.625 20C11.625 20.4832 12.0167 20.875 12.5 20.875V20.125C12.431 20.125 12.375 20.069 12.375 20H11.625ZM27.098 8.125H21V8.875H27.098V8.125ZM1.375 1.5C1.375 1.43096 1.43096 1.375 1.5 1.375V0.625C1.01675 0.625 0.625 1.01675 0.625 1.5H1.375ZM1.375 17.5V1.5H0.625V17.5H1.375ZM1.5 17.625C1.43096 17.625 1.375 17.569 1.375 17.5H0.625C0.625 17.9832 1.01675 18.375 1.5 18.375V17.625ZM6.69323 17.625H1.5V18.375H6.69323V17.625ZM5.96068 21.0472L7.04473 18.1306L6.34172 17.8694L5.25767 20.7859L5.96068 21.0472ZM6.15428 21.1897C6.12273 21.2141 6.09738 21.2188 6.07796 21.2184C6.05521 21.2179 6.02847 21.2096 6.00376 21.1914C5.97906 21.1733 5.96317 21.1502 5.95595 21.1286C5.94979 21.1102 5.94679 21.0846 5.96068 21.0472L5.25767 20.7859C4.95115 21.6106 5.91668 22.3211 6.61286 21.7831L6.15428 21.1897ZM10.6661 17.7033L6.15428 21.1897L6.61286 21.7831L11.1247 18.2967L10.6661 17.7033ZM20.5 17.625H10.8954V18.375H20.5V17.625ZM20.625 17.5C20.625 17.569 20.569 17.625 20.5 17.625V18.375C20.9832 18.375 21.375 17.9832 21.375 17.5H20.625ZM20.625 1.5V17.5H21.375V1.5H20.625ZM20.5 1.375C20.569 1.375 20.625 1.43096 20.625 1.5H21.375C21.375 1.01675 20.9832 0.625 20.5 0.625V1.375ZM1.5 1.375H20.5V0.625H1.5V1.375ZM9.93986 7.59955L13.7235 3.50449L13.1727 2.99551L9.389 7.09058L9.93986 7.59955ZM9.68981 8.24132C9.66839 8.02345 9.7441 7.79309 9.92769 7.61212L9.40117 7.078C9.05845 7.41584 8.89955 7.86861 8.94341 8.31471L9.68981 8.24132ZM9.69161 14.6112V8.27802H8.94161V14.6112H9.69161ZM9.81661 14.7362C9.74757 14.7362 9.69161 14.6803 9.69161 14.6112H8.94161C8.94161 15.0945 9.33336 15.4862 9.81661 15.4862V14.7362ZM14.8994 14.7362H9.81661V15.4862H14.8994V14.7362ZM15.6391 14.148C15.5843 14.3421 15.4939 14.4862 15.3811 14.5806C15.2723 14.6718 15.1199 14.7362 14.8994 14.7362V15.4862C15.2795 15.4862 15.6068 15.37 15.8627 15.1556C16.1148 14.9444 16.2744 14.6579 16.3609 14.352L15.6391 14.148ZM16.3784 8.69933L15.6284 14.1993L16.3716 14.3007L17.1216 8.80067L16.3784 8.69933ZM15.8587 7.96532C16.0017 7.96532 16.375 8.16338 16.375 8.75H17.125C17.125 7.83662 16.4983 7.21532 15.8587 7.21532V7.96532ZM13.4481 7.96532H15.8587V7.21532H13.4481V7.96532ZM13.9479 6.27782L13.146 7.36814L13.7502 7.8125L14.5521 6.72218L13.9479 6.27782ZM13.1829 3.51517C13.799 4.13125 14.0983 4.57043 14.1976 4.96622C14.2914 5.34031 14.2214 5.74153 13.9172 6.32712L14.5828 6.67288C14.9279 6.00847 15.082 5.40969 14.9251 4.78378C14.7735 4.17957 14.3472 3.61875 13.7133 2.98483L13.1829 3.51517ZM5.5 7.68773H8.81662V6.93773H5.5V7.68773ZM8.94162 7.81273V14.9663H9.69162V7.81273H8.94162ZM8.81662 15.0913H5.5V15.8413H8.81662V15.0913ZM5.375 14.9663V7.81273H4.625V14.9663H5.375ZM5.5 15.0913C5.43096 15.0913 5.375 15.0354 5.375 14.9663H4.625C4.625 15.4496 5.01675 15.8413 5.5 15.8413V15.0913ZM8.94162 14.9663C8.94162 15.0354 8.88565 15.0913 8.81662 15.0913V15.8413C9.29987 15.8413 9.69162 15.4496 9.69162 14.9663H8.94162ZM8.81662 7.68773C8.88565 7.68773 8.94162 7.74369 8.94162 7.81273H9.69162C9.69162 7.32948 9.29987 6.93773 8.81662 6.93773V7.68773ZM5.5 6.93773C5.01675 6.93773 4.625 7.32948 4.625 7.81273H5.375C5.375 7.74369 5.43096 7.68773 5.5 7.68773V6.93773ZM11.625 18V20H12.375V18H11.625Z" fill="black"/>
</svg>
