<svg xmlns="http://www.w3.org/2000/svg" width="21" height="21" viewBox="0 0 21 21" fill="none">
  <path fill-rule="evenodd" clip-rule="evenodd" d="M15.7755 8.76277C15.7755 12.7739 12.5239 16.0255 8.51277 16.0255C4.50165 16.0255 1.25 12.7739 1.25 8.76277C1.25 4.75165 4.50165 1.5 8.51277 1.5C12.5239 1.5 15.7755 4.75165 15.7755 8.76277ZM13.9789 14.9593C12.5222 16.2452 10.6086 17.0255 8.51277 17.0255C3.94937 17.0255 0.25 13.3262 0.25 8.76277C0.25 4.19937 3.94937 0.5 8.51277 0.5C13.0762 0.5 16.7755 4.19937 16.7755 8.76277C16.7755 10.8586 15.9952 12.7722 14.7092 14.2289L15.1144 14.6341L19.5429 19.0626L20.25 19.7697L20.2268 19.7929L19.5429 20.4768L19.5197 20.5L18.8126 19.7929L14.3841 15.3645L13.9789 14.9593Z" fill="black"/>
</svg>