<svg class="svg-icon" style="width: 1em; height: 1em;vertical-align: middle;fill: currentColor;overflow: hidden;" viewBox="0 0 1024 1024" version="1.1" xmlns="http://www.w3.org/2000/svg"><path d="M170.666667 298.666667m-42.666667 0a42.666667 42.666667 0 1 0 85.333333 0 42.666667 42.666667 0 1 0-85.333333 0Z"  /><path d="M170.666667 512m-42.666667 0a42.666667 42.666667 0 1 0 85.333333 0 42.666667 42.666667 0 1 0-85.333333 0Z"  /><path d="M170.666667 725.333333m-42.666667 0a42.666667 42.666667 0 1 0 85.333333 0 42.666667 42.666667 0 1 0-85.333333 0Z"  /><path d="M298.666667 469.333333m40.106666 0l517.12 0q40.106667 0 40.106667 40.106667l0 5.12q0 40.106667-40.106667 40.106667l-517.12 0q-40.106667 0-40.106666-40.106667l0-5.12q0-40.106667 40.106666-40.106667Z"  /><path d="M298.666667 682.666667m40.106666 0l517.12 0q40.106667 0 40.106667 40.106666l0 5.12q0 40.106667-40.106667 40.106667l-517.12 0q-40.106667 0-40.106666-40.106667l0-5.12q0-40.106667 40.106666-40.106666Z"  /><path d="M298.666667 256m40.106666 0l517.12 0q40.106667 0 40.106667 40.106667l0 5.12q0 40.106667-40.106667 40.106666l-517.12 0q-40.106667 0-40.106666-40.106666l0-5.12q0-40.106667 40.106666-40.106667Z"  /></svg>